<svg width="32" height="32" viewBox="0 0 32 32" fill="none" xmlns="http://www.w3.org/2000/svg">
  <!-- Background -->
  <rect width="32" height="32" rx="4" fill="#C41230"/>
  
  <!-- Calendar outline -->
  <rect x="7" y="6" width="18" height="20" rx="2" fill="white"/>
  
  <!-- Calendar top bar -->
  <rect x="7" y="6" width="18" height="4" rx="1" fill="#C41230"/>
  
  <!-- Calendar pins -->
  <circle cx="11" cy="8" r="1" fill="white"/>
  <circle cx="21" cy="8" r="1" fill="white"/>
  
  <!-- AI/Circuit pattern -->
  <path d="M11 14L14 14L14 17L11 17L11 14Z" fill="#C41230"/>
  <path d="M18 14L21 14L21 17L18 17L18 14Z" fill="#C41230"/>
  <path d="M14.5 18L17.5 18L17.5 21L14.5 21L14.5 18Z" fill="#C41230"/>
  
  <!-- Connecting lines -->
  <path d="M14 15.5H18" stroke="#C41230" stroke-width="1"/>
  <path d="M11 22L21 22" stroke="#C41230" stroke-width="1"/>
  <path d="M16 17V22" stroke="#C41230" stroke-width="1"/>
</svg>
